<?xml version="1.0" encoding="utf-8"?>
<!-- Generator: Adobe Illustrator 22.1.0, SVG Export Plug-In . SVG Version: 6.00 Build 0)  -->
<svg version="1.1" id="Layer_1" xmlns="http://www.w3.org/2000/svg" xmlns:xlink="http://www.w3.org/1999/xlink" x="0px" y="0px"
	 viewBox="0 0 98.7 98.7" style="enable-background:new 0 0 98.7 98.7;" xml:space="preserve">
<style type="text/css">
	.st0{fill:none;stroke:#2A2E31;stroke-width:4;stroke-linecap:round;stroke-linejoin:round;stroke-miterlimit:10;}
</style>
<g id="Graphic_Design">
	<polyline class="st0" points="20.5,86.7 13.5,86.7 13.5,5.4 73.4,5.4 85.2,19 85.2,86.7 77.5,86.7 	"/>
	<polyline class="st0" points="72.6,5.4 72.6,19.2 85.2,19 	"/>
	<rect x="30.6" y="21.7" class="st0" width="12.7" height="69.8"/>
	<line class="st0" x1="38.9" y1="47.3" x2="43.3" y2="47.3"/>
	<line class="st0" x1="37" y1="56.4" x2="43.3" y2="56.4"/>
	<line class="st0" x1="38.9" y1="66" x2="43.3" y2="66"/>
	<line class="st0" x1="37" y1="75.1" x2="43.3" y2="75.1"/>
	<line class="st0" x1="38.3" y1="84.2" x2="42.7" y2="84.2"/>
	<path class="st0" d="M48.3,80.1"/>
	<path class="st0" d="M47.7,70.7"/>
	<path class="st0" d="M63.8,70.7"/>
	<g>
		<path class="st0" d="M60.9,68.2"/>
		<path class="st0" d="M55.4,68.2"/>
		<path class="st0" d="M69.2,75.6c0,4.6,0,10.4,0,10.4s-0.7,7.3-8.3,7.3h-0.3c-7.6,0-7.9-7.3-7.9-7.3s0-5.8,0-10.4c0,0-0.1-9,3.7-9
			c4.4,0,4.4,0,4.4,0"/>
		<path class="st0" d="M66.1,68.2"/>
		<path class="st0" d="M60.6,68.2"/>
		<line class="st0" x1="52.7" y1="75.6" x2="68.8" y2="75.6"/>
		<line class="st0" x1="61" y1="66.6" x2="61" y2="75.5"/>
		<path class="st0" d="M69.2,75.6c0,0-0.1-9-3.9-9c-4.4,0-4.4,0-4.4,0"/>
	</g>
	<line class="st0" x1="36.7" y1="38.2" x2="43" y2="38.2"/>
	<line class="st0" x1="38.9" y1="29.2" x2="43.3" y2="29.2"/>
</g>
</svg>
