<?xml version="1.0" encoding="utf-8"?>
<!-- Generator: Adobe Illustrator 22.1.0, SVG Export Plug-In . SVG Version: 6.00 Build 0)  -->
<svg version="1.1" id="Layer_1" xmlns="http://www.w3.org/2000/svg" xmlns:xlink="http://www.w3.org/1999/xlink" x="0px" y="0px"
	 viewBox="0 0 28 28" style="enable-background:new 0 0 28 28;" xml:space="preserve">
<style type="text/css">
	.st0{fill:#FFFFFF;}
</style>
<g id="LinkedIn">
	<rect x="1.7" y="9.8" class="st0" width="5.1" height="16.1"/>
	<path class="st0" d="M20.6,9.6c-2.9,0-4.7,1.6-5.1,2.7V9.8H9.8c0.1,1.3,0,16.1,0,16.1h5.7v-8.7c0-0.5,0-1,0.1-1.3
		c0.4-1,1.2-2,2.7-2c2,0,2.9,1.5,2.9,3.7v8.3H27v-8.9C27,11.9,24.2,9.6,20.6,9.6z"/>
	<path class="st0" d="M4.1,2.2C2.2,2.2,1,3.4,1,5c0,1.6,1.2,2.8,3,2.8h0C6,7.8,7.2,6.5,7.2,5C7.1,3.4,6,2.2,4.1,2.2z"/>
</g>
</svg>
